HIERARCHY
ROOT SpineBase
{
  OFFSET 0.000000 0.000000 0.000000
  CHANNELS 6 Xposition Yposition Zposition Zrotation Xrotation Yrotation
  JOINT SpineMid
  {
    OFFSET 0.000000 28.666523 -0.000000
    CHANNELS 3 Zrotation Xrotation Yrotation
    JOINT SpineShoulder
    {
      OFFSET -0.066402 21.243117 -0.637867
      CHANNELS 3 Zrotation Xrotation Yrotation
      JOINT Neck
      {
        OFFSET -0.039926 7.031848 -0.490824
        CHANNELS 3 Zrotation Xrotation Yrotation
        JOINT Head
        {
          OFFSET -1.735601 12.002320 -0.190977
          CHANNELS 3 Zrotation Xrotation Yrotation
          End Site
          {
            OFFSET 0 0 0
          }
        }
      }
      JOINT ShoulderLeft
      {
        OFFSET -16.456455 -2.071938 5.958094
        CHANNELS 3 Zrotation Xrotation Yrotation
        JOINT ElbowLeft
        {
          OFFSET -4.325090 -29.003928 2.321700
          CHANNELS 3 Zrotation Xrotation Yrotation
          JOINT WristLeft
          {
            OFFSET -0.067672 -18.719464 -9.117683
            CHANNELS 3 Zrotation Xrotation Yrotation
            JOINT HandLeft
            {
              OFFSET 2.082063 -4.455280 -1.582777
              CHANNELS 3 Zrotation Xrotation Yrotation
              JOINT HandTipLeft
              {
                OFFSET 1.087164 -5.248806 -0.632440
                CHANNELS 3 Zrotation Xrotation Yrotation
                End Site
                {
                  OFFSET 0 0 0
                }
              }
              JOINT ThumbLeft
              {
                OFFSET 1.795489 2.812664 -2.507627
                CHANNELS 3 Zrotation Xrotation Yrotation
                End Site
                {
                  OFFSET 0 0 0
                }
              }
            }
          }
        }
      }
      JOINT ShoulderRight
      {
        OFFSET 15.170532 -1.667699 -5.497041
        CHANNELS 3 Zrotation Xrotation Yrotation
        JOINT ElbowRight
        {
          OFFSET 8.532404 -19.483526 -3.413512
          CHANNELS 3 Zrotation Xrotation Yrotation
          JOINT WristRight
          {
            OFFSET -9.626954 -4.539770 -19.034040
            CHANNELS 3 Zrotation Xrotation Yrotation
            JOINT HandRight
            {
              OFFSET -5.249437 -1.196875 -4.580108
              CHANNELS 3 Zrotation Xrotation Yrotation
              JOINT HandTipRight
              {
                OFFSET -2.131093 -1.542986 -3.930484
                CHANNELS 3 Zrotation Xrotation Yrotation
                End Site
                {
                  OFFSET 0 0 0
                }
              }
              JOINT ThumbRight
              {
                OFFSET 2.732199 0.143465 -2.939234
                CHANNELS 3 Zrotation Xrotation Yrotation
                End Site
                {
                  OFFSET 0 0 0
                }
              }
            }
          }
        }
      }
    }
  }
  JOINT HipLeft
  {
    OFFSET -5.909374 0.221409 -1.537504
    CHANNELS 3 Zrotation Xrotation Yrotation
    JOINT KneeLeft
    {
      OFFSET -5.359277 -35.158219 4.628746
      CHANNELS 3 Zrotation Xrotation Yrotation
      JOINT AnkleLeft
      {
        OFFSET 0.881781 -31.571608 6.296484
        CHANNELS 3 Zrotation Xrotation Yrotation
        JOINT FootLeft
        {
          OFFSET -3.109133 -3.688509 -12.313469
          CHANNELS 3 Zrotation Xrotation Yrotation
          End Site
          {
            OFFSET 0 0 0
          }
        }
      }
    }
  }
  JOINT HipRight
  {
    OFFSET 5.535231 1.048753 -5.090445
    CHANNELS 3 Zrotation Xrotation Yrotation
    JOINT KneeRight
    {
      OFFSET 8.700076 -33.342747 5.767396
      CHANNELS 3 Zrotation Xrotation Yrotation
      JOINT AnkleRight
      {
        OFFSET 2.511746 -32.121104 7.448675
        CHANNELS 3 Zrotation Xrotation Yrotation
        JOINT FootRight
        {
          OFFSET -3.562791 -3.278268 -13.053690
          CHANNELS 3 Zrotation Xrotation Yrotation
          End Site
          {
            OFFSET 0 0 0
          }
        }
      }
    }
  }
}
MOTION
Frames: 9
Frame Time: 0.033333
19.892151 72.578129 354.826386 0.000000 -0.000000 17.246792 0.000000 0.000000 -17.246792 -0.000000 0.000000 0.000000 -0.000000 0.000000 0.000000 0.000000 0.000000 0.000000 -0.000000 0.000000 0.000000 -0.000000 0.000000 0.000000 -0.000000 0.000000 0.000000 -0.000000 0.000000 0.000000 0.000000 0.000000 0.000000 0.000000 0.000000 0.000000 -0.000000 0.000000 0.000000 -0.000000 0.000000 0.000000 -0.000000 0.000000 0.000000 -0.000000 0.000000 0.000000 0.000000 0.000000 0.000000 0.000000 0.000000 0.000000 0.000000 0.000000 -17.246792 -0.000000 0.000000 0.000000 -0.000000 0.000000 0.000000 0.000000 0.000000 0.000000 0.000000 0.000000 -17.246792 -0.000000 0.000000 0.000000 -0.000000 0.000000 0.000000 0.000000 0.000000 0.000000
19.925887 72.566089 354.825534 0.048080 0.036830 17.456062 -0.056914 -0.020711 -17.456088 -0.000000 0.000000 0.000000 -0.000000 0.000000 0.000000 0.000000 0.000000 0.000000 0.579078 -2.246757 0.392469 -3.307214 2.601320 1.078862 5.350810 1.831160 -1.199025 -2.529307 0.880186 0.441786 0.000000 0.000000 0.000000 0.000000 0.000000 0.000000 0.136775 -1.576454 -0.713838 0.550758 0.612594 -0.195058 -4.295087 3.114420 4.221427 4.661066 -2.926785 -5.728251 0.000000 0.000000 0.000000 0.000000 0.000000 0.000000 -0.056914 -0.020711 -17.456088 -0.000000 0.000000 0.000000 -0.000000 0.000000 0.000000 0.000000 0.000000 0.000000 -0.056914 -0.020711 -17.456088 -0.000000 0.000000 0.000000 1.310148 -4.805206 0.077027 0.000000 0.000000 0.000000
19.967660 72.564002 354.835017 0.089042 0.067069 17.675104 -0.105203 -0.036868 -17.675190 -0.000000 0.000000 0.000000 -0.501869 0.904486 0.126868 0.000000 0.000000 0.000000 0.427549 -3.810021 0.615506 -4.486480 5.829314 1.729736 9.519837 3.914906 -0.995880 -4.353695 0.306977 -0.009291 0.000000 0.000000 0.000000 0.000000 0.000000 0.000000 0.442017 -2.085015 -0.984038 0.271345 0.970287 0.255018 -7.265565 4.855490 6.774700 7.481082 -5.122064 -8.480062 0.000000 0.000000 0.000000 0.000000 0.000000 0.000000 -0.105203 -0.036868 -17.675190 -0.000000 0.000000 0.000000 -0.000000 0.000000 0.000000 0.000000 0.000000 0.000000 -0.105203 -0.036868 -17.675190 -0.000000 0.000000 0.000000 2.499014 -9.118102 0.269239 0.000000 0.000000 0.000000
20.017472 72.571868 354.854837 0.122963 0.090777 17.903715 -0.144916 -0.048580 -17.903874 -0.000000 0.000000 0.000000 -0.418550 1.020913 0.144800 0.000000 0.000000 0.000000 -0.502598 -4.713061 0.639764 -3.782422 9.731420 1.917871 12.154058 6.562255 0.742658 -5.019135 -1.598792 -1.422172 0.000000 0.000000 0.000000 0.000000 0.000000 0.000000 0.929260 -1.567417 -0.835579 -0.952366 1.553488 0.861202 -8.834198 5.036214 8.054990 8.806212 -6.493586 -8.751941 0.000000 0.000000 0.000000 0.000000 0.000000 0.000000 -0.144916 -0.048580 -17.903874 -0.000000 0.000000 0.000000 -0.000000 0.000000 0.000000 0.000000 0.000000 0.000000 -0.144916 -0.048580 -17.903874 0.744860 -0.542340 0.133632 2.665074 -11.945269 0.360169 0.000000 0.000000 0.000000
20.075320 72.589687 354.884993 0.149899 0.107992 18.141670 -0.176073 -0.055950 -18.141897 -0.000000 0.000000 0.000000 -0.113375 0.916843 0.131722 0.000000 0.000000 0.000000 -2.304406 -4.930659 0.449105 -1.100835 14.518782 1.528452 12.309063 9.068593 4.030310 -3.761491 -4.159566 -3.350786 0.000000 0.000000 0.000000 0.000000 0.000000 0.000000 1.595420 -0.020426 -0.286458 -2.688296 0.830916 2.976592 -9.385300 5.566718 6.927766 8.701254 -7.048237 -6.598276 0.000000 0.000000 0.000000 0.000000 0.000000 0.000000 -0.176073 -0.055950 -18.141897 -0.000000 0.000000 0.000000 -0.000000 0.000000 0.000000 0.000000 0.000000 0.000000 -0.176073 -0.055950 -18.141897 0.898261 -0.688106 0.159571 3.076060 -13.836530 0.559146 0.000000 0.000000 0.000000
20.141207 72.617459 354.925485 0.169881 0.118733 18.388725 -0.198662 -0.059078 -18.389004 -0.000000 0.000000 0.000000 -0.000000 0.000000 0.000000 0.000000 0.000000 0.000000 -5.124533 -4.376047 0.046025 3.991584 20.519050 0.315605 9.125796 9.583840 8.494064 0.225782 -6.078738 -4.782055 0.000000 0.000000 0.000000 0.000000 0.000000 0.000000 2.420262 2.596679 0.649804 -5.582473 0.388598 5.288386 -8.559546 4.683951 4.399510 6.987058 -6.882899 -1.717707 0.000000 0.000000 0.000000 0.000000 0.000000 0.000000 -0.198662 -0.059078 -18.389004 -0.000000 0.000000 0.000000 -0.000000 0.000000 0.000000 0.000000 0.000000 0.000000 -0.198662 -0.059078 -18.389004 1.010994 -0.820819 0.177089 3.082414 -14.182320 0.692630 0.000000 0.000000 0.000000
20.233320 72.696703 354.955776 0.212376 0.186236 18.889614 -0.261232 -0.107449 -18.890204 -0.000000 0.000000 0.000000 1.009133 0.024336 0.019338 0.000000 0.000000 0.000000 -9.532548 -2.881527 -0.567151 12.507472 29.290604 -2.077704 1.410492 2.249086 12.453670 12.387303 -2.402690 -3.805909 0.000000 0.000000 0.000000 0.000000 0.000000 0.000000 3.500537 6.524027 2.000148 -10.340142 -0.255764 9.423577 -6.163174 4.031267 -3.576615 3.114987 -8.432801 11.397914 0.000000 0.000000 0.000000 0.000000 0.000000 0.000000 -0.261232 -0.107449 -18.890204 -0.000000 0.000000 0.000000 -0.000000 0.000000 0.000000 0.000000 0.000000 0.000000 -0.261232 -0.107449 -18.890204 0.941106 -0.977137 0.149465 2.618311 -12.333387 0.984699 0.000000 0.000000 0.000000
20.288632 72.771880 355.031917 0.175855 0.195292 19.214064 -0.230330 -0.126539 -19.214618 -0.000000 0.000000 0.000000 1.999910 -1.026092 -0.098385 0.000000 0.000000 0.000000 -15.356140 0.045972 -1.212903 26.018105 39.504424 -7.010046 -11.583255 -12.813310 12.694385 30.971034 6.752475 -2.798092 0.000000 0.000000 0.000000 0.000000 0.000000 0.000000 4.184470 11.457070 3.753365 -16.344674 0.114718 12.897736 -2.034904 -1.645576 -9.100480 -3.830677 -7.783491 22.994041 0.000000 0.000000 0.000000 0.000000 0.000000 0.000000 -0.903732 0.373548 -19.356644 0.801096 -0.248597 0.145215 -0.232740 -0.106996 0.868141 0.000000 0.000000 0.000000 -0.230330 -0.126539 -19.214618 1.063880 -1.107906 0.169860 0.872691 -5.145830 -1.330005 0.000000 0.000000 0.000000
20.357748 72.816417 355.140703 0.135902 0.118232 19.288132 -0.167328 -0.066704 -19.288369 -0.000000 0.000000 0.000000 3.471955 -2.035869 -0.176634 0.000000 0.000000 0.000000 -22.836118 3.619119 -1.616555 48.298921 49.281527 -17.769945 -25.160864 -21.219351 12.293161 42.006304 8.480849 -1.269465 0.000000 0.000000 0.000000 0.000000 0.000000 0.000000 4.047332 17.254988 6.030917 -22.519057 0.382706 15.687561 1.134082 -7.990181 -14.019402 -10.410575 -6.272298 31.666211 0.000000 0.000000 0.000000 0.000000 0.000000 0.000000 -0.856748 0.482167 -19.439550 0.371764 0.550659 0.088693 0.459779 -0.839454 0.071506 0.000000 0.000000 0.000000 -0.334308 0.837363 -19.157604 1.758407 -2.034971 0.111508 0.346218 -5.469490 0.732550 0.000000 0.000000 0.000000
